<?xml version="1.0" standalone="no"?>
<!DOCTYPE svg PUBLIC "-//W3C//DTD SVG 20010904//EN"
 "http://www.w3.org/TR/2001/REC-SVG-20010904/DTD/svg10.dtd">
<svg version="1.0" xmlns="http://www.w3.org/2000/svg"
 width="700.000000pt" height="700.000000pt" viewBox="0 0 700.000000 700.000000"
 preserveAspectRatio="xMidYMid meet">
<metadata>
Created by potrace 1.11, written by Peter Selinger 2001-2013
</metadata>
<g transform="translate(0.000000,700.000000) scale(0.100000,-0.100000)"
fill="#000000" stroke="none">
<path d="M0 3500 l0 -3500 3500 0 3500 0 0 3500 0 3500 -3500 0 -3500 0 0
-3500z m4707 1928 l343 -343 0 -531 0 -530 -148 -167 -149 -166 249 -248 248
-247 0 -641 0 -640 -343 -343 -342 -342 -1408 0 -1407 0 0 2270 0 2270 1307 0
1308 0 342 -342z"/>
<path d="M2520 4520 l0 -570 744 0 744 0 131 152 131 151 0 286 0 286 -133
133 -132 132 -743 0 -742 0 0 -570z"/>
<path d="M2520 2590 l0 -680 843 0 842 0 133 133 132 132 0 415 0 415 -132
132 -133 133 -842 0 -843 0 0 -680z"/>
</g>
</svg>
