<svg width="50" height="50" viewBox="0 0 50 50" fill="none" xmlns="http://www.w3.org/2000/svg">
<path d="M0.38333 21.7958C-1.23959 32.0167 3.30208 44.3438 17.3062 48.8917C17.5562 48.9375 17.7875 48.9583 18.0042 48.9583C19.6333 48.9583 20.7542 47.7458 20.7542 46.25C20.5521 45.1604 21.5521 40.7458 18.8375 41.3396C13.5896 42.4562 12.9604 39.525 12.1604 37.9917C14.4229 40.8958 17.8229 40.8229 20.3875 39.6979C21.8104 39.0729 21.0667 37.4812 21.7417 36.9C22.775 36.0125 22.25 34.3104 20.8937 34.1625C16.0729 33.6313 11.6083 32.0771 11.6083 24.3667C11.6083 19.85 14.7437 19.4458 13.8792 17.5562C13.8479 17.4875 13.1854 15.9854 13.7854 13.7042C16.7417 14.25 18.1021 16.3708 19.5208 15.9896C23.0354 15.0312 26.9042 15.0312 30.4167 15.9896C31.8833 16.3833 32.9312 14.3208 36.1208 13.6917C37.0396 17.1375 35.1354 17.9792 36.3354 19.2687C37.6521 20.6854 38.3208 22.4 38.3208 24.3667C38.3208 35.9583 28.4937 32.6104 27.6937 35.2417C27.5104 35.8417 27.7042 36.4896 28.1833 36.8917C29.4542 37.9604 29.2875 40.7042 29.1521 42.9104C29.0125 45.1979 28.8917 47.1708 30.1562 48.2833C30.6021 48.6792 31.3958 49.1021 32.8312 48.8104C46.6521 44.3708 51.2271 32.0979 49.6292 21.9C45.2625 -5.95001 4.78333 -5.91668 0.38333 21.7958ZM17.6125 44.6667L17.6208 45.7188C16.5312 45.3417 15.5062 44.9062 14.5479 44.4208C15.4333 44.6479 16.45 44.7458 17.6125 44.6667ZM18.3833 36.9583C18.3729 37.0125 18.3625 37.0687 18.3521 37.125C16.575 37.65 15.2083 37.1271 14.275 35.5583C14.275 35.5562 14.275 35.5562 14.2729 35.5542C15.6896 36.3125 17.15 36.7208 18.3833 36.9583ZM25 4.16666C49.6521 4.16666 55.2125 38.0562 32.2271 45.7104C32.1479 45.0917 32.2208 43.925 32.2708 43.1021C32.3917 41.1208 32.5333 38.8125 31.8271 36.8833C42.4271 34.6771 43.3125 23.0375 39.2312 17.8521C39.7375 15.8687 39.5333 11.2083 37.7125 10.6375C37.2833 10.5021 34.9937 10.0042 30.5521 12.7979C26.925 11.9312 23.0104 11.9292 19.3833 12.7979C17.1667 11.4083 12.1708 9.14791 11.2125 11.5479C10.1 14.3437 10.3646 16.6042 10.6958 17.8604C7.07291 22.4521 8.15833 30.1396 11.8083 33.7479C9.73958 32.7583 6.88958 32.4208 6.275 34.4021C5.60208 36.5625 8.175 36.3 9.77291 40.2437C9.92499 40.7354 10.2062 41.3125 10.6375 41.8854C-3.55209 30.2917 3.29375 4.16666 25 4.16666Z" fill="black"/>
</svg>
