<svg width="50" height="50" viewBox="0 0 50 50" fill="none" xmlns="http://www.w3.org/2000/svg">
<g clip-path="url(#clip0)">
<path d="M14.7461 17.6758H8.88672C8.07762 17.6758 7.42188 18.3315 7.42188 19.1406V42.5781C7.42188 43.3872 8.07762 44.043 8.88672 44.043H14.7461C15.5552 44.043 16.2109 43.3872 16.2109 42.5781V19.1406C16.2109 18.3315 15.5552 17.6758 14.7461 17.6758ZM13.2812 41.1133H10.3516V20.6055H13.2812V41.1133Z" fill="black"/>
<path d="M11.8164 5.95703C9.39331 5.95703 7.42188 7.92847 7.42188 10.3516C7.42188 12.7747 9.39331 14.7461 11.8164 14.7461C14.2395 14.7461 16.2109 12.7747 16.2109 10.3516C16.2109 7.92847 14.2395 5.95703 11.8164 5.95703ZM11.8164 11.8164C11.0088 11.8164 10.3516 11.1591 10.3516 10.3516C10.3516 9.54399 11.0088 8.88672 11.8164 8.88672C12.624 8.88672 13.2812 9.54399 13.2812 10.3516C13.2812 11.1591 12.624 11.8164 11.8164 11.8164Z" fill="black"/>
<path d="M34.7305 17.7662C32.3372 17.3778 29.8874 17.8333 27.9202 18.9712C27.8358 18.2419 27.2163 17.6758 26.4648 17.6758H20.6055C19.7964 17.6758 19.1406 18.3315 19.1406 19.1406V42.5781C19.1406 43.3872 19.7964 44.043 20.6055 44.043H26.4648C27.2739 44.043 27.9297 43.3872 27.9297 42.5781V29.3945C27.9297 27.779 29.2439 26.4648 30.8594 26.4648C32.4749 26.4648 33.7891 27.779 33.7891 29.3945V42.5781C33.7891 43.3872 34.4448 44.043 35.2539 44.043H41.1133C41.9224 44.043 42.5781 43.3872 42.5781 42.5781V26.8105C42.5781 22.4358 39.4863 18.5379 34.7305 17.7662ZM39.6484 41.1133H36.7188V29.3945C36.7188 26.1635 34.0904 23.5352 30.8594 23.5352C27.6283 23.5352 25 26.1635 25 29.3945V41.1133H22.0703V20.6055H25V22.0703C25 22.6627 25.3571 23.1968 25.9045 23.4238C26.4515 23.6504 27.0817 23.5249 27.5005 23.106L28.1837 22.4228C29.6219 20.985 32.0076 20.2923 34.2613 20.6581C37.7094 21.2177 39.6484 23.9731 39.6484 26.8105V41.1133Z" fill="black"/>
<path d="M42.5781 0H7.42188C3.37067 0 0 3.37334 0 7.42188V42.5781C0 46.6293 3.37334 50 7.42188 50H42.5781C46.6293 50 50 46.6267 50 42.5781V7.42188C50 3.37067 46.6267 0 42.5781 0ZM47.0703 42.5781C47.0703 45.013 45.013 47.0703 42.5781 47.0703H7.42188C4.98695 47.0703 2.92969 45.013 2.92969 42.5781V7.42188C2.92969 4.98695 4.98695 2.92969 7.42188 2.92969H42.5781C45.013 2.92969 47.0703 4.98695 47.0703 7.42188V42.5781Z" fill="black"/>
</g>
<defs>
<clipPath id="clip0">
<rect width="50" height="50" fill="white"/>
</clipPath>
</defs>
</svg>
