<svg width="50" height="50" viewBox="0 0 50 50" fill="none" xmlns="http://www.w3.org/2000/svg">
<path d="M0.985416 40.8229C5.61458 43.7604 11.0021 45.3125 16.5646 45.3125C24.7104 45.3125 32.175 42.1833 37.5854 36.5021C42.7625 31.0646 45.6104 23.7583 45.4687 16.3438C47.4312 14.6646 49.7396 11.4583 49.7396 8.33334C49.7396 7.13542 48.4396 6.375 47.3854 6.98542C45.5417 8.06875 43.8604 8.35209 42.1312 7.86667C38.6 4.425 33.3437 3.7 28.9146 6.0875C25.0437 8.17084 22.8917 11.9833 23.0854 16.15C16.5458 15.3521 10.5042 12.0729 6.29167 6.97709C5.6 6.14584 4.2875 6.24375 3.7375 7.18542C1.70833 10.6604 1.72917 14.6875 3.49375 17.9396C2.65417 18.0875 2.13542 18.7937 2.13542 19.5583C2.13542 22.8271 3.60625 25.8312 5.975 27.8812C5.53333 28.3062 5.3875 28.9375 5.575 29.5C6.61667 32.6292 8.975 35.075 11.9229 36.3C8.71667 37.8312 5.17083 38.3417 2.01458 37.9542C0.38125 37.7333 -0.425 39.9292 0.985416 40.8229ZM16.9917 36.8354C18.1604 35.9375 17.5396 34.0667 16.0729 34.0354C13.4896 33.9812 11.1375 32.7083 9.67292 30.7062C10.3792 30.6604 11.1104 30.5521 11.8062 30.3646C13.3917 29.9354 13.3167 27.6479 11.7062 27.325C8.78333 26.7375 6.48958 24.6083 5.62917 21.8667C6.41458 22.0604 7.21458 22.1687 8.0125 22.1833C9.59375 22.1917 10.1917 20.1646 8.90208 19.3167C5.99583 17.4021 4.75625 14.0208 5.57708 10.8417C10.6521 15.9833 17.5375 19.0812 24.8208 19.4312C25.8646 19.4958 26.6479 18.5146 26.4187 17.5208C25.4292 13.2313 27.825 10.225 30.3979 8.83959C32.9437 7.46459 37.0312 7.03542 40.1646 10.3229C41.0958 11.3042 44.2375 11.3417 45.8354 10.9688C45.1187 12.3188 44.0167 13.6 42.9854 14.3208C42.5458 14.6292 42.2937 15.1417 42.3208 15.6771C42.6562 22.5208 40.1062 29.325 35.325 34.3437C30.5083 39.4 23.8479 42.1854 16.5667 42.1854C13.6708 42.1854 10.8312 41.7146 8.14792 40.8062C11.3562 40.1854 14.4042 38.8271 16.9917 36.8354Z" fill="black"/>
</svg>
